<?xml version="1.0" standalone="no"?>
<!DOCTYPE svg PUBLIC "-//W3C//DTD SVG 20010904//EN"
 "http://www.w3.org/TR/2001/REC-SVG-20010904/DTD/svg10.dtd">
<svg version="1.0" xmlns="http://www.w3.org/2000/svg"
 width="681.000000pt" height="579.000000pt" viewBox="0 0 681.000000 579.000000"
 preserveAspectRatio="xMidYMid meet">
<g transform="translate(0.000000,579.000000) scale(0.100000,-0.100000)"
fill="#d9607a" stroke="none">
<path d="M5740 5208 c-40 -24 -66 -50 -97 -98 -24 -35 -43 -74 -43 -86 0 -23
-29 -54 -51 -54 -8 0 -23 7 -33 15 -28 21 -158 20 -216 -2 -105 -39 -151 -99
-152 -196 0 -108 60 -189 182 -244 33 -15 62 -34 65 -41 3 -8 -2 -43 -10 -78
-26 -115 -15 -195 41 -279 38 -58 51 -67 120 -85 64 -16 126 -3 187 41 45 32
102 114 112 160 10 44 31 56 65 36 21 -13 52 -17 122 -17 105 0 170 23 219 76
36 39 69 115 69 158 0 62 -58 153 -122 191 -59 35 -87 48 -118 54 -34 6 -35 8
-33 46 1 22 4 92 5 155 3 108 1 118 -22 155 -33 54 -67 84 -118 106 -64 28
-109 24 -172 -13z m108 -75 c-5 -26 -38 -29 -38 -4 0 15 6 21 21 21 14 0 19
-5 17 -17z m-75 -9 c18 -7 24 -44 7 -44 -11 0 -50 40 -50 53 0 5 6 6 13 3 6
-3 20 -9 30 -12z m177 -14 c0 -12 -7 -20 -17 -20 -39 -1 -70 -48 -43 -65 6 -3
10 -42 10 -85 0 -43 -4 -82 -10 -85 -5 -3 -10 -13 -10 -22 0 -9 -9 -35 -20
-58 -38 -79 5 -142 110 -159 52 -9 169 -68 176 -89 16 -51 -44 -97 -126 -97
-39 0 -129 29 -153 49 -8 6 -31 15 -50 18 -48 7 -78 -25 -109 -120 -25 -77
-73 -150 -102 -155 -10 -2 -29 6 -42 19 -36 33 -33 114 6 210 16 41 30 89 30
108 0 36 -33 81 -60 81 -26 0 -202 94 -216 115 -11 16 -11 25 -1 45 12 24 17
25 99 24 61 -2 93 -7 110 -18 12 -9 30 -16 39 -16 9 0 22 -6 28 -14 6 -7 26
-16 43 -20 40 -8 74 13 81 51 27 136 91 263 133 263 8 0 27 14 41 30 29 35 53
39 53 10z m-220 -38 c0 -4 -5 -13 -12 -20 -8 -8 -8 -15 2 -27 11 -13 10 -14
-4 -9 -11 4 -16 1 -16 -10 0 -9 -10 -36 -22 -61 -22 -42 -25 -44 -57 -38 -26
4 -33 3 -29 -8 3 -8 19 -14 41 -14 47 0 54 -10 23 -30 -24 -16 -28 -16 -61 -1
-19 9 -35 20 -35 25 0 4 24 33 53 63 29 31 62 75 73 97 17 36 44 56 44 33z
m-182 -176 c3 -13 -1 -17 -14 -14 -11 2 -20 11 -22 22 -3 13 1 17 14 14 11 -2
20 -11 22 -22z m-262 -163 c-9 -9 -36 18 -36 35 0 12 5 11 21 -7 12 -12 18
-25 15 -28z m644 12 c0 -8 -4 -15 -10 -15 -5 0 -10 7 -10 15 0 8 5 15 10 15 6
0 10 -7 10 -15z m72 -15 c-1 -12 3 -29 9 -36 8 -10 8 -14 0 -14 -6 0 -11 5
-11 10 0 6 -11 10 -24 10 -34 0 -39 13 -15 39 25 27 45 22 41 -9z m-682 -66
c0 -28 -15 -25 -23 6 -3 13 0 20 9 20 8 0 14 -10 14 -26z m834 -30 c11 -29 6
-33 -24 -23 -32 12 -38 24 -17 32 23 10 35 7 41 -9z m-704 -35 c0 -12 -42 -29
-54 -21 -5 3 1 13 13 24 23 18 41 16 41 -3z m760 -30 c0 -5 -11 -9 -25 -9 -14
0 -25 6 -25 14 0 9 8 12 25 8 14 -2 25 -8 25 -13z m-710 0 c0 -7 8 -17 17 -24
15 -11 14 -15 -10 -39 -15 -15 -27 -33 -27 -41 0 -20 -26 -19 -34 1 -4 11 1
18 14 21 13 3 20 14 20 29 0 26 -10 30 -27 13 -12 -12 -33 -4 -33 12 0 5 7 9
15 9 9 0 18 7 21 15 7 17 44 20 44 4z m738 -121 c-5 -16 -48 -24 -48 -9 0 8
17 16 43 20 5 0 7 -5 5 -11z m-58 -27 c0 -14 -18 -23 -30 -16 -6 4 -8 11 -5
16 8 12 35 12 35 0z m-313 -38 c2 -6 -8 -13 -22 -17 -22 -6 -23 -9 -13 -26 9
-14 10 -22 1 -31 -8 -8 -16 -2 -32 20 -13 18 -17 32 -11 36 5 3 10 14 10 24 0
15 5 17 32 12 17 -4 33 -11 35 -18z m-112 -114 c-28 -29 -37 -11 -12 22 17 24
23 27 25 14 2 -9 -4 -25 -13 -36z m-65 -64 c0 -8 -7 -15 -15 -15 -16 0 -20 12
-8 23 11 12 23 8 23 -8z m-122 -28 c3 -16 -35 -44 -45 -33 -4 3 -1 18 6 32 12
27 34 28 39 1z m82 -22 c0 -28 -12 -32 -30 -10 -14 16 -6 35 16 35 8 0 14 -10
14 -25z"/>
<path d="M5692 4709 c-18 -12 -39 -34 -48 -50 -13 -27 -13 -31 10 -68 28 -44
52 -56 95 -46 30 6 50 25 70 62 13 25 4 48 -38 96 -30 32 -45 33 -89 6z"/>
<path d="M1275 5121 c-93 -26 -140 -64 -180 -144 -21 -41 -25 -63 -25 -136 0
-93 -8 -111 -47 -111 -54 0 -149 -84 -188 -166 -36 -75 -40 -122 -20 -186 31
-93 75 -141 172 -188 l62 -30 -2 -72 c-1 -62 3 -83 30 -139 47 -102 142 -169
238 -168 88 0 195 59 243 132 15 23 31 45 36 49 11 8 35 0 57 -19 23 -19 121
-43 179 -43 94 0 191 62 242 153 20 36 23 56 23 137 -1 101 -8 122 -67 201
-34 45 -35 57 -5 89 155 172 114 412 -86 503 -58 26 -163 23 -238 -8 -46 -18
-66 -22 -80 -14 -11 5 -19 14 -19 19 0 17 -86 96 -130 119 -47 24 -146 35
-195 22z m25 -98 c-1 -13 -70 -53 -90 -53 -10 0 -22 5 -25 10 -4 6 8 10 28 10
26 0 36 5 40 20 5 19 48 30 47 13z m231 -62 c34 -34 37 -51 9 -51 -11 0 -20 7
-20 15 0 9 -7 18 -15 21 -14 6 -22 44 -9 44 3 0 19 -13 35 -29z m-158 -5 c47
-20 101 -83 133 -154 39 -91 86 -106 151 -49 63 53 109 72 181 72 58 0 66 -3
89 -29 22 -26 24 -35 18 -85 -6 -44 -16 -67 -53 -114 -25 -33 -58 -67 -74 -76
-35 -20 -47 -70 -25 -104 8 -12 34 -42 59 -67 84 -86 108 -158 72 -220 -18
-30 -71 -60 -107 -60 -34 0 -148 64 -177 100 -3 3 -21 16 -41 28 l-36 22 -34
-23 c-26 -17 -40 -39 -61 -97 -36 -98 -85 -149 -144 -150 -34 0 -46 6 -72 34
-55 60 -63 163 -18 231 10 15 16 40 14 57 -3 31 -4 32 -102 54 -85 20 -104 28
-135 58 -63 64 -41 135 57 182 45 22 62 25 103 20 41 -6 54 -3 79 16 36 26 37
32 5 120 -29 79 -31 121 -10 171 14 35 59 76 83 77 7 0 27 -6 45 -14z m316
-62 c2 -2 -2 -10 -8 -18 -7 -8 -10 -20 -6 -26 3 -5 -1 -10 -9 -10 -9 0 -16 6
-16 14 0 20 -23 36 -39 26 -18 -11 -41 -2 -41 17 0 12 10 13 58 7 31 -3 59 -8
61 -10z m271 -9 c0 -8 -4 -15 -10 -15 -5 0 -10 7 -10 15 0 8 5 15 10 15 6 0
10 -7 10 -15z m-800 -40 c0 -8 -4 -15 -10 -15 -5 0 -10 7 -10 15 0 8 5 15 10
15 6 0 10 -7 10 -15z m440 -10 c0 -8 -4 -15 -9 -15 -13 0 -22 16 -14 24 11 11
23 6 23 -9z m-462 -63 c2 -7 -3 -12 -12 -12 -9 0 -16 7 -16 16 0 17 22 14 28
-4z m-8 -57 c0 -10 -10 -15 -26 -15 -22 0 -25 2 -14 15 7 8 19 15 26 15 8 0
14 -7 14 -15z m55 -24 c7 -12 -12 -24 -25 -16 -11 7 -4 25 10 25 5 0 11 -4 15
-9z m-145 -36 c0 -8 -7 -15 -15 -15 -16 0 -20 12 -8 23 11 12 23 8 23 -8z
m990 -21 c0 -8 -7 -14 -15 -14 -15 0 -21 21 -9 33 10 9 24 -2 24 -19z m-70
-176 c0 -37 -15 -36 -29 3 -18 51 -15 66 9 44 11 -10 20 -31 20 -47z m-1002
-114 c-10 -10 -28 6 -28 24 0 15 1 15 17 -1 9 -9 14 -19 11 -23z m187 -84 c3
-5 3 -15 0 -20 -7 -12 -45 5 -45 20 0 13 37 13 45 0z m-49 -47 c22 -23 31 -39
24 -41 -11 -4 -80 61 -80 74 0 14 26 -1 56 -33z m529 -177 c9 -3 14 -10 10
-15 -7 -12 -35 -3 -35 10 0 12 -57 12 -64 0 -3 -5 1 -14 9 -21 12 -10 13 -16
4 -26 -17 -20 -28 -17 -22 6 4 14 0 20 -11 20 -20 0 -21 29 -1 36 8 4 15 16
15 28 0 37 11 38 46 2 18 -18 40 -36 49 -40z m16 48 l24 -26 -27 13 c-16 7
-28 18 -28 26 0 18 3 17 31 -13z m296 -41 c-3 -3 -11 -2 -17 2 -9 6 -9 10 1
16 14 8 27 -7 16 -18z m-267 -43 c0 -5 -7 -10 -15 -10 -8 0 -15 5 -15 10 0 6
7 10 15 10 8 0 15 -4 15 -10z m-450 -60 c11 -7 12 -12 3 -21 -13 -13 -33 -4
-33 17 0 16 9 18 30 4z"/>
<path d="M1458 4552 c-30 -13 -58 -59 -58 -96 0 -48 24 -82 67 -97 67 -22 133
28 133 101 0 61 -86 116 -142 92z"/>
<path d="M3335 4881 c-122 -17 -270 -126 -324 -240 -80 -170 -34 -343 118
-442 35 -22 22 -44 -46 -77 -32 -15 -76 -39 -98 -53 -22 -14 -59 -37 -82 -50
-23 -13 -86 -51 -140 -83 -54 -33 -109 -66 -123 -74 -14 -7 -38 -22 -55 -32
-16 -11 -37 -23 -45 -27 -8 -3 -59 -33 -112 -65 -54 -32 -100 -58 -102 -58 -3
0 -24 -12 -48 -27 -24 -16 -51 -32 -60 -38 -9 -5 -48 -32 -86 -58 -180 -124
-249 -232 -297 -462 -9 -44 -21 -96 -27 -115 -7 -19 -15 -55 -19 -80 -14 -86
-29 -143 -40 -156 -6 -7 -32 -23 -57 -35 -26 -13 -79 -42 -119 -66 -39 -24
-74 -43 -76 -43 -3 0 -31 -17 -63 -39 -33 -21 -86 -53 -119 -70 -32 -18 -71
-41 -86 -52 -15 -10 -30 -19 -34 -19 -16 0 -76 -55 -97 -88 -53 -87 -77 -242
-43 -286 8 -11 15 -26 15 -34 0 -14 53 -87 80 -110 8 -7 76 -48 150 -92 74
-44 142 -85 150 -90 8 -6 22 -13 30 -17 8 -4 47 -26 85 -48 39 -23 77 -44 85
-48 8 -4 29 -16 45 -27 17 -11 37 -23 45 -27 8 -4 33 -19 54 -35 21 -15 43
-28 47 -28 4 0 63 -33 131 -73 68 -41 130 -77 138 -80 8 -4 29 -16 45 -27 17
-11 39 -24 50 -30 11 -6 34 -19 50 -29 17 -11 50 -30 75 -42 25 -13 63 -36 84
-51 21 -15 43 -28 48 -28 5 0 28 -13 51 -28 23 -16 49 -32 57 -35 8 -4 29 -16
45 -27 17 -11 39 -24 50 -29 11 -5 56 -32 100 -59 96 -60 204 -114 265 -133
59 -18 260 -19 320 0 58 17 121 41 140 52 8 5 24 13 35 18 12 5 63 34 113 65
51 31 95 56 97 56 2 0 21 12 42 26 21 14 47 30 58 35 11 5 29 15 40 21 11 7
38 24 60 38 22 14 61 36 88 50 26 14 47 28 47 32 0 5 6 8 13 9 23 1 180 104
200 131 14 19 18 34 13 53 -9 36 -59 85 -85 85 -12 0 -100 -47 -196 -105 -96
-58 -177 -105 -180 -105 -2 0 -23 -13 -47 -29 -24 -15 -62 -39 -84 -52 -119
-69 -144 -85 -144 -91 0 -5 -5 -8 -11 -8 -6 0 -43 -19 -82 -43 -101 -60 -163
-77 -281 -77 -95 0 -104 2 -170 36 -39 19 -84 44 -101 54 -16 11 -37 23 -45
27 -8 4 -44 24 -79 46 -35 21 -74 43 -85 48 -12 5 -34 18 -51 29 -16 11 -37
23 -45 27 -8 4 -59 33 -112 64 -53 32 -114 67 -135 79 -21 11 -51 29 -68 40
-31 19 -73 43 -135 76 -19 11 -37 22 -40 25 -5 5 -109 66 -140 82 -8 4 -28 16
-45 27 -16 11 -37 23 -45 27 -8 4 -46 25 -85 48 -38 22 -77 44 -85 48 -8 4
-24 13 -35 20 -11 7 -38 24 -60 37 -23 14 -50 31 -60 38 -11 6 -27 15 -35 19
-8 4 -33 18 -55 32 -22 14 -47 30 -56 36 -9 5 -38 22 -65 38 -124 70 -151 105
-139 185 8 52 33 78 140 140 104 61 106 62 167 95 29 16 74 45 100 65 47 35
47 36 28 54 -10 10 -30 18 -44 18 -14 0 -27 4 -31 10 -6 10 51 44 63 36 5 -3
41 26 81 65 78 73 114 87 124 47 9 -32 -2 -42 -24 -22 -18 16 -19 16 -26 -2
-3 -11 -11 -23 -17 -27 -7 -5 -3 -6 8 -3 48 16 64 -53 16 -71 -29 -11 -29 -11
-14 -42 14 -29 14 -34 0 -56 -9 -13 -16 -36 -16 -51 0 -22 -2 -25 -15 -14 -17
14 -20 51 -5 66 16 16 1 43 -26 50 -13 3 -26 15 -29 25 -6 19 -35 27 -35 10 0
-23 14 -41 31 -41 26 0 25 -39 -1 -82 -11 -18 -20 -41 -20 -50 0 -10 -6 -32
-14 -50 -8 -18 -22 -67 -31 -108 l-18 -75 24 -50 c25 -52 75 -93 184 -150 28
-15 64 -35 80 -46 17 -10 37 -22 45 -26 8 -4 58 -33 111 -65 53 -32 99 -58
103 -58 5 0 270 -155 326 -191 8 -5 24 -13 36 -18 12 -5 46 -26 77 -45 31 -20
67 -41 79 -46 13 -6 37 -19 53 -30 17 -11 39 -24 50 -30 11 -6 34 -19 50 -30
17 -11 39 -24 50 -30 11 -6 38 -21 60 -33 145 -83 165 -90 241 -82 81 7 153
24 174 39 8 7 35 22 60 34 25 13 59 32 75 42 17 10 42 25 57 33 79 43 479 276
528 307 8 6 22 13 30 17 8 4 33 18 55 32 22 14 69 40 105 59 36 19 72 41 81
48 8 8 19 14 23 14 5 0 28 14 53 30 24 16 46 30 49 30 3 0 49 26 102 58 54 33
104 62 112 66 17 8 37 20 97 59 24 15 45 27 47 27 4 0 275 158 326 189 85 54
199 124 215 134 92 56 126 102 128 175 1 52 -19 165 -33 193 -6 10 -10 32 -10
49 0 35 -35 120 -50 120 -5 0 -12 -11 -16 -25 -10 -41 -31 -30 -30 16 1 25 -4
44 -11 46 -9 3 -13 -5 -13 -23 0 -22 -3 -25 -12 -16 -10 10 -10 17 0 32 9 15
10 26 2 40 -13 25 -13 63 1 77 9 9 8 24 -5 62 -19 58 -20 71 -6 71 6 0 10 -11
10 -25 0 -16 13 -37 35 -58 19 -17 35 -40 35 -49 0 -11 8 -18 19 -18 12 0 21
-9 25 -24 4 -17 15 -26 37 -31 17 -4 33 -13 36 -21 3 -8 14 -14 24 -14 20 0
26 -15 9 -25 -5 -3 -23 4 -39 16 -24 18 -32 19 -51 9 -22 -12 -22 -12 15 -43
40 -33 103 -77 110 -77 2 0 23 -13 47 -29 51 -33 115 -71 178 -103 25 -13 71
-49 103 -81 51 -52 57 -62 57 -100 0 -23 -8 -53 -18 -68 -22 -33 -81 -85 -113
-99 -13 -6 -33 -16 -44 -23 -83 -51 -103 -63 -120 -75 -11 -6 -29 -17 -40 -22
-11 -6 -33 -19 -50 -30 -16 -11 -37 -23 -45 -27 -37 -16 -157 -97 -173 -116
-27 -33 -57 -105 -57 -137 0 -53 71 -140 114 -140 8 0 29 -8 48 -17 18 -9 47
-23 63 -32 72 -36 128 -110 163 -217 43 -132 69 -152 152 -119 25 10 80 20
124 22 77 5 79 4 112 -28 39 -38 42 -64 14 -118 -19 -38 -105 -121 -126 -121
-17 0 -84 -67 -84 -84 0 -9 16 -42 35 -72 44 -69 75 -148 75 -193 0 -45 -35
-95 -76 -110 -70 -25 -142 18 -218 133 -60 90 -97 99 -149 34 -18 -24 -43 -59
-55 -78 -50 -83 -128 -123 -186 -94 -52 25 -69 58 -67 129 2 66 16 104 63 169
15 21 28 47 28 57 0 20 -76 90 -132 121 -35 20 -108 112 -108 136 0 26 35 72
66 87 67 32 165 6 286 -73 66 -43 68 -44 93 -28 13 9 34 33 44 55 19 37 19 38
1 68 -26 44 -121 106 -220 143 -19 8 -77 16 -127 18 -88 3 -95 2 -153 -29 -52
-27 -110 -83 -110 -105 0 -4 -8 -16 -17 -26 -39 -43 -13 -240 39 -291 10 -10
18 -22 18 -26 0 -5 25 -27 55 -50 53 -40 66 -66 44 -88 -14 -14 -39 -110 -39
-150 0 -51 26 -136 54 -177 64 -95 180 -141 288 -112 78 20 158 66 158 90 0 6
10 17 21 24 20 13 26 10 68 -30 77 -73 103 -83 211 -83 103 0 119 6 191 70 52
47 72 84 86 163 10 63 10 84 -3 140 -8 36 -22 75 -30 86 -24 34 -16 55 39 105
93 86 138 203 116 301 -20 85 -58 139 -124 172 -99 51 -99 51 -181 45 -43 -3
-89 -8 -101 -12 -18 -6 -23 -2 -29 21 -14 57 -63 141 -110 187 -50 50 -180
121 -211 115 -23 -4 -26 1 -18 32 4 18 24 34 73 58 37 18 81 42 97 52 17 11
39 24 50 30 11 6 34 19 50 30 17 11 39 24 50 29 11 5 36 20 55 33 19 13 42 27
50 31 67 33 150 110 173 160 9 18 21 60 28 94 11 51 11 72 0 115 -19 75 -48
127 -95 173 -38 38 -474 309 -584 364 l-49 24 -17 91 c-9 50 -23 118 -31 151
-7 33 -21 105 -31 160 -25 142 -68 229 -162 322 -40 40 -104 92 -143 115 -39
24 -82 51 -97 60 -15 10 -36 22 -47 28 -26 13 -52 30 -92 57 -17 13 -42 27
-55 33 -24 10 -32 15 -106 63 -24 15 -45 27 -47 27 -2 0 -24 14 -48 30 -25 17
-47 30 -51 30 -3 0 -47 25 -98 56 -50 31 -101 60 -113 65 -11 5 -33 18 -50 28
-52 33 -163 64 -205 57 -37 -6 -41 -4 -77 41 -77 97 -206 203 -246 203 -8 0
-20 7 -27 15 -7 8 -20 15 -30 15 -10 0 -33 6 -51 14 -42 17 -167 26 -234 17z
m-22 -101 c8 0 8 -3 1 -10 -12 -12 -44 -3 -44 12 0 6 7 7 16 4 9 -3 21 -6 27
-6z m305 -32 c-3 -7 -11 -13 -18 -13 -7 0 -15 6 -17 13 -3 7 4 12 17 12 13 0
20 -5 18 -12z m110 -35 c2 -8 -5 -13 -17 -13 -21 0 -35 13 -24 24 10 10 36 3
41 -11z m-141 -45 c189 -89 343 -363 313 -556 -6 -37 -20 -87 -31 -111 -24
-52 -108 -143 -152 -165 -18 -9 -39 -21 -47 -26 -8 -5 -33 -16 -55 -25 -22 -9
-58 -25 -81 -36 -23 -10 -46 -19 -53 -19 -27 0 -20 32 19 81 38 48 65 99 104
194 38 92 38 243 2 313 -18 36 -32 46 -78 63 -48 17 -107 0 -165 -47 -50 -41
-69 -42 -119 -5 -51 37 -69 58 -83 100 -16 48 -14 83 8 133 17 41 85 108 109
108 5 0 15 6 22 14 15 19 45 22 145 17 62 -3 94 -10 142 -33z m-447 -7 c0 -17
-12 -41 -20 -41 -15 0 -21 33 -8 42 17 10 28 10 28 -1z m720 -96 c0 -16 -6
-25 -15 -25 -9 0 -15 9 -15 25 0 16 6 25 15 25 9 0 15 -9 15 -25z m58 -36 c9
-14 19 -18 32 -14 13 4 20 2 20 -7 0 -7 4 -19 9 -27 8 -12 12 -12 25 -2 22 18
90 10 94 -11 3 -14 -3 -18 -26 -18 -20 0 -32 -7 -42 -25 -7 -14 -21 -25 -31
-25 -18 0 -29 -19 -29 -52 0 -17 -3 -18 -15 -8 -8 7 -15 20 -15 30 0 10 -10
20 -21 23 -19 5 -21 10 -15 51 7 42 5 46 -13 46 -23 0 -26 12 -11 41 14 24 22
24 38 -2z m242 -90 c0 -5 -10 -9 -21 -9 -18 0 -19 2 -9 15 12 15 30 12 30 -6z
m-1080 -25 c0 -8 -4 -14 -10 -14 -5 0 -10 9 -10 21 0 11 5 17 10 14 6 -3 10
-13 10 -21z m1130 -13 c0 -14 -18 -23 -31 -15 -8 4 -7 9 2 15 18 11 29 11 29
0z m-79 -42 c41 -23 86 -50 101 -60 15 -11 32 -19 38 -19 6 0 26 -11 43 -24
18 -13 56 -37 85 -52 68 -37 75 -41 152 -90 36 -22 72 -44 80 -47 8 -4 29 -16
45 -27 17 -11 39 -24 50 -30 11 -6 34 -19 50 -30 17 -11 37 -23 45 -27 38 -20
162 -107 204 -145 83 -72 121 -153 130 -278 2 -41 9 -88 15 -105 9 -27 20 -78
51 -235 6 -30 15 -85 20 -122 5 -38 12 -72 15 -78 3 -6 13 -49 21 -98 8 -48
19 -109 24 -137 5 -27 12 -71 15 -96 l7 -45 -133 -80 c-73 -43 -142 -84 -154
-91 -11 -7 -29 -16 -40 -22 -11 -5 -37 -21 -58 -35 -21 -14 -40 -26 -42 -26
-3 0 -60 -33 -128 -73 -67 -40 -129 -76 -137 -80 -8 -4 -22 -11 -30 -16 -29
-19 -215 -127 -230 -134 -8 -4 -28 -16 -45 -26 -16 -11 -48 -29 -70 -41 -22
-12 -59 -35 -83 -51 -24 -16 -45 -29 -48 -29 -2 0 -71 -40 -152 -88 -81 -48
-154 -91 -162 -95 -8 -4 -28 -16 -45 -27 -16 -11 -37 -23 -45 -27 -16 -7 -204
-116 -230 -133 -8 -6 -25 -14 -36 -19 -12 -6 -52 -30 -89 -55 -36 -25 -72 -46
-79 -46 -19 0 -24 -9 -19 -30 7 -27 33 -33 54 -14 11 10 25 14 36 10 15 -6 12
-12 -22 -41 -46 -40 -61 -43 -70 -15 -9 27 -24 25 -35 -5 -12 -32 -65 -36 -73
-5 -6 23 -29 26 -50 6 -8 -8 -19 -11 -26 -6 -10 6 -10 9 -1 15 6 4 9 17 6 30
-7 29 13 45 26 21 5 -9 14 -14 19 -10 6 4 6 11 -1 19 -15 18 -4 35 21 35 14 0
19 7 19 25 0 14 6 25 13 25 19 0 37 -21 37 -42 0 -37 28 -17 41 30 11 37 14
140 12 497 -1 248 -5 465 -8 483 -15 71 -94 191 -173 263 -60 56 -168 129
-190 129 -7 0 -23 6 -35 14 -29 18 -118 29 -173 20 -31 -4 -66 -22 -112 -55
-84 -62 -108 -62 -106 1 7 202 7 207 -18 241 -29 41 -61 69 -107 91 -73 35
-113 20 -225 -86 -55 -51 -93 -60 -114 -26 -10 17 -10 29 3 66 8 24 15 50 15
57 0 25 57 122 95 161 49 50 305 221 405 269 18 9 39 22 97 60 24 15 45 27 48
27 3 0 24 12 48 27 62 41 80 51 102 62 12 5 61 33 110 63 50 30 97 57 105 61
18 8 40 22 93 60 22 15 44 27 48 27 18 0 166 106 206 147 27 28 47 41 57 37
11 -4 16 -1 16 10 0 22 -75 23 -84 1 -3 -10 -19 -15 -44 -15 -28 0 -45 -7 -61
-24 -20 -21 -27 -23 -47 -14 -28 13 -30 21 -9 38 19 16 11 30 -14 23 -14 -4
-19 2 -23 26 -4 24 1 34 18 46 31 20 51 19 64 -4 9 -17 15 -18 47 -10 60 16
97 32 109 47 9 12 15 12 43 -3 31 -15 33 -15 45 1 8 10 18 14 25 10 9 -6 8
-11 -5 -21 -17 -12 -16 -13 4 -19 26 -9 39 -50 23 -70 -10 -11 -9 -16 4 -24
15 -8 14 -15 -15 -68 l-32 -59 7 48 c7 45 6 47 -17 47 -23 0 -48 -32 -48 -61
0 -6 -9 -31 -21 -57 -18 -42 -29 -63 -72 -143 -7 -13 -26 -44 -42 -69 -22 -35
-29 -57 -29 -97 -1 -47 3 -56 34 -88 57 -56 136 -58 310 -8 75 22 113 40 196
95 169 113 239 241 239 438 0 92 -14 163 -41 203 -15 24 -6 57 16 57 9 0 51
-19 91 -41z m-951 -59 c0 -31 -11 -49 -26 -43 -15 5 -18 30 -8 57 8 20 34 9
34 -14z m1308 -39 c3 -8 -1 -12 -9 -9 -7 2 -15 10 -17 17 -3 8 1 12 9 9 7 -2
15 -10 17 -17z m-1300 -153 c-7 -19 -38 -22 -38 -4 0 10 9 16 21 16 12 0 19
-5 17 -12z m1747 -88 c-3 -5 -15 -10 -26 -10 -10 0 -19 5 -19 10 0 6 12 10 26
10 14 0 23 -4 19 -10z m-1493 -280 c2 -14 11 -26 23 -30 11 -3 31 -13 45 -22
19 -14 22 -20 12 -30 -10 -10 -19 -9 -43 5 -36 20 -65 22 -72 5 -4 -10 -7 -10
-18 -1 -10 10 -9 16 6 34 19 20 19 22 2 51 -9 16 -15 34 -11 39 9 15 53 -24
56 -51z m306 18 c-6 -18 -28 -21 -28 -4 0 9 7 16 16 16 9 0 14 -5 12 -12z
m-56 -40 c-9 -9 -15 -9 -24 0 -9 9 -7 12 12 12 19 0 21 -3 12 -12z m1546 -51
c2 -10 -3 -17 -12 -17 -10 0 -16 9 -16 21 0 24 23 21 28 -4z m-2918 -116 c0
-10 -30 -24 -37 -17 -3 3 -2 9 2 15 8 13 35 15 35 2z m-92 -33 c19 -19 14 -26
-13 -20 -25 4 -31 13 -18 25 9 10 17 9 31 -5z m-68 -38 c0 -5 -7 -10 -15 -10
-8 0 -15 5 -15 10 0 6 7 10 15 10 8 0 15 -4 15 -10z m-208 -323 c-9 -17 -18
-34 -20 -36 -1 -3 -7 0 -12 5 -6 6 -2 21 13 41 28 40 41 33 19 -10z m383 -107
c-5 -24 -3 -30 9 -30 9 0 21 -11 26 -24 5 -13 17 -29 26 -34 10 -6 15 -16 11
-26 -9 -24 -26 -20 -37 9 -5 14 -16 25 -25 25 -9 0 -15 9 -15 25 0 22 -4 25
-34 25 -19 0 -38 -4 -41 -10 -3 -5 -12 -10 -20 -10 -9 0 -5 9 11 25 14 14 32
25 40 25 8 0 17 7 20 15 4 8 13 15 21 15 11 0 13 -7 8 -30z m-395 12 c0 -5 16
-16 35 -25 43 -21 44 -35 3 -71 -18 -15 -40 -42 -48 -59 -18 -37 -50 -49 -50
-19 0 11 5 22 12 24 8 3 6 14 -7 35 -18 31 -18 32 6 77 21 40 49 62 49 38z
m3680 -87 c0 -8 -6 -15 -14 -15 -20 0 -29 17 -14 23 22 9 28 7 28 -8z m-3560
-5 c0 -5 -6 -10 -14 -10 -8 0 -16 -7 -20 -15 -3 -8 -10 -15 -16 -15 -14 0 -13
23 2 38 15 15 48 16 48 2z m60 -9 c0 -12 -20 -25 -27 -18 -7 7 6 27 18 27 5 0
9 -4 9 -9z m193 -21 c-10 -98 -5 -208 10 -241 50 -111 196 -146 286 -69 93 81
161 89 247 30 25 -16 49 -30 55 -30 5 0 12 -7 15 -15 4 -8 11 -15 17 -15 19 0
108 -100 132 -148 24 -47 24 -48 28 -517 2 -259 7 -480 11 -492 8 -21 5 -23
-25 -23 -20 0 -43 9 -58 23 -23 21 -190 122 -231 141 -8 3 -28 15 -45 26 -16
11 -37 23 -45 27 -8 4 -42 23 -75 43 -33 20 -91 54 -130 74 -38 21 -77 45 -86
52 -8 8 -18 14 -22 14 -3 0 -61 33 -129 73 -68 40 -130 76 -138 80 -8 4 -37
21 -65 38 -27 16 -63 37 -80 45 -34 17 -102 56 -157 91 -31 19 -38 29 -38 56
0 18 4 37 9 43 6 5 14 27 20 49 6 22 15 60 22 85 6 25 18 72 26 105 8 33 19
76 25 95 7 19 15 55 19 80 4 25 12 63 18 85 6 22 11 59 11 82 0 37 3 43 24 49
16 4 34 0 48 -10 50 -35 127 -13 204 58 35 33 56 45 74 43 20 -2 25 -7 23 -27z
m99 -145 c0 -5 -5 -11 -11 -13 -6 -2 -11 4 -11 13 0 9 5 15 11 13 6 -2 11 -8
11 -13z m488 -36 c0 -12 -37 -12 -44 0 -7 11 14 20 32 13 6 -2 12 -8 12 -13z
m-454 -4 c4 -8 19 -15 34 -15 16 0 32 -4 35 -10 3 -5 -3 -10 -14 -10 -12 0
-21 -8 -23 -22 -3 -24 -28 -38 -28 -15 0 20 -25 39 -53 41 -12 1 -23 9 -25 19
-3 15 1 17 22 11 16 -4 26 -2 26 5 0 16 20 13 26 -4z m122 -52 c-2 -10 -10
-18 -18 -18 -8 0 -16 8 -18 18 -2 12 3 17 18 17 15 0 20 -5 18 -17z m2814
-125 c-9 -9 -15 -9 -24 0 -9 9 -7 12 12 12 19 0 21 -3 12 -12z m-2244 -23 c24
-27 28 -45 12 -45 -5 0 -10 7 -10 15 0 8 -4 15 -10 15 -5 0 -14 9 -20 20 -15
28 2 25 28 -5z m-1638 -55 c0 -5 -7 -10 -15 -10 -8 0 -15 5 -15 10 0 6 7 10
15 10 8 0 15 -4 15 -10z m-44 -49 c-8 -13 -36 -15 -36 -3 0 4 5 13 12 20 14
14 34 0 24 -17z m4544 -41 c0 -5 -7 -10 -15 -10 -8 0 -15 5 -15 10 0 6 7 10
15 10 8 0 15 -4 15 -10z m-4750 -59 c0 -11 6 -22 13 -25 6 -3 -1 -3 -18 1 -39
8 -40 9 -25 28 17 21 30 19 30 -4z m4620 -11 c0 -5 -9 -10 -19 -10 -11 0 -23
5 -26 10 -4 6 5 10 19 10 14 0 26 -4 26 -10z m-4680 -23 c0 -12 -39 -42 -46
-35 -6 6 26 48 37 48 5 0 9 -6 9 -13z m3658 -88 c-2 -6 -8 -10 -13 -10 -5 0
-11 4 -13 10 -2 6 4 11 13 11 9 0 15 -5 13 -11z m-3068 -108 c13 -26 13 -31
-5 -31 -8 0 -15 -4 -15 -10 0 -5 -8 -10 -17 -10 -17 1 -17 1 0 14 9 7 17 17
17 21 0 4 -8 14 -17 21 -17 12 -16 13 4 14 12 0 27 -9 33 -19z m3694 0 c9 -14
-4 -41 -19 -41 -21 0 -28 19 -15 35 14 17 26 19 34 6z m66 -11 c0 -5 -7 -10
-15 -10 -8 0 -15 5 -15 10 0 6 7 10 15 10 8 0 15 -4 15 -10z m-91 -105 c3 -19
-23 -45 -46 -45 -18 0 -16 17 5 45 19 27 35 27 41 0z m-4212 -32 c-3 -3 -11
-2 -17 2 -8 5 -7 11 2 22 12 15 13 14 16 -1 2 -10 1 -20 -1 -23z m60 -39 c-9
-9 -28 6 -21 18 4 6 10 6 17 -1 6 -6 8 -13 4 -17z m4203 -34 c0 -5 -6 -10 -14
-10 -8 0 -18 5 -21 10 -3 6 3 10 14 10 12 0 21 -4 21 -10z m-3330 -19 c0 -18
-18 -21 -30 -6 -10 13 -9 15 9 15 11 0 21 -4 21 -9z m2025 -51 c-3 -5 -12 -10
-20 -10 -8 0 -17 5 -20 10 -4 6 5 10 20 10 15 0 24 -4 20 -10z m-1880 -49 c3
-5 1 -13 -5 -16 -15 -9 -43 3 -35 15 8 13 32 13 40 1z m3411 -99 c-10 -10 -29
15 -21 28 6 9 10 8 17 -4 6 -10 7 -20 4 -24z m34 -47 c-11 -14 -10 -17 9 -22
22 -6 24 -24 4 -30 -18 -6 -36 36 -28 64 4 19 9 23 17 15 8 -8 8 -15 -2 -27z
m-3908 -47 c-9 -9 -15 -9 -24 0 -9 9 -7 12 12 12 19 0 21 -3 12 -12z m1888 2
c0 -5 -9 -10 -20 -10 -11 0 -20 5 -20 10 0 6 9 10 20 10 11 0 20 -4 20 -10z
m2156 -11 c8 -14 -14 -29 -43 -29 -27 0 -31 26 -5 33 30 8 41 7 48 -4z m-3209
-25 c-9 -9 -28 6 -21 18 4 6 10 6 17 -1 6 -6 8 -13 4 -17z m3386 20 c11 -11
-3 -24 -18 -18 -8 4 -12 10 -9 15 6 11 18 12 27 3z m-923 -64 c0 -5 -9 -10
-20 -10 -11 0 -20 5 -20 10 0 6 9 10 20 10 11 0 20 -4 20 -10z m-2267 -56 c-7
-19 -26 -17 -39 4 -11 16 -9 18 16 14 19 -3 27 -9 23 -18z m3313 -43 c-10 -16
-36 -13 -36 3 0 17 21 27 34 16 4 -5 5 -13 2 -19z m-3269 -7 c-9 -9 -28 6 -21
18 4 6 10 6 17 -1 6 -6 8 -13 4 -17z m521 10 c-10 -10 -23 -14 -34 -10 -16 6
-16 8 -4 16 8 6 24 10 35 10 18 0 18 -1 3 -16z m-398 -53 c13 -25 -2 -36 -30
-21 -21 11 -25 22 -13 33 12 13 32 7 43 -12z m3124 -36 c9 -14 14 -30 10 -36
-3 -6 -12 1 -20 16 -24 47 -17 61 10 20z m-2104 -20 c14 -16 10 -18 -14 -9 -9
3 -16 10 -16 15 0 14 16 11 30 -6z m1014 -31 c4 -9 4 -19 2 -21 -8 -8 -26 8
-26 23 0 19 16 18 24 -2z m1016 -74 c0 -11 -4 -20 -10 -20 -5 0 -10 9 -10 20
0 11 5 20 10 20 6 0 10 -9 10 -20z m-30 -45 c0 -16 -27 -32 -37 -22 -3 4 -3
13 0 22 8 20 37 20 37 0z m-909 -5 c13 -7 19 -21 19 -43 l0 -32 -35 38 c-19
21 -35 40 -35 43 0 8 31 4 51 -6z m869 -50 c0 -11 -6 -20 -13 -20 -19 0 -27
10 -20 26 8 21 33 17 33 -6z m-3245 -50 c0 -22 -29 -18 -33 3 -3 14 1 18 15
15 10 -2 18 -10 18 -18z m595 -140 c0 -5 -7 -10 -15 -10 -8 0 -15 5 -15 10 0
6 7 10 15 10 8 0 15 -4 15 -10z m2287 -87 c3 -10 15 -30 25 -45 23 -34 23 -41
-2 -33 -11 4 -20 2 -20 -4 0 -17 -28 -13 -38 5 -6 11 -17 15 -31 11 -18 -4
-21 -1 -21 28 0 29 3 32 21 28 14 -4 25 0 31 11 12 21 27 21 35 -1z m-473 -45
c17 -24 21 -48 8 -48 -8 0 -16 14 -40 63 -9 17 18 5 32 -15z m332 -54 c-3 -8
-15 -14 -27 -14 -20 0 -21 2 -7 18 8 9 19 26 23 37 8 19 9 19 13 -3 2 -13 1
-30 -2 -38z m494 26 c0 -5 -9 -10 -20 -10 -11 0 -20 5 -20 10 0 6 9 10 20 10
11 0 20 -4 20 -10z m-260 -50 c0 -5 -13 -10 -30 -10 -16 0 -30 5 -30 10 0 6
14 10 30 10 17 0 30 -4 30 -10z m-510 -30 c0 -5 -7 -10 -15 -10 -8 0 -15 5
-15 10 0 6 7 10 15 10 8 0 15 -4 15 -10z"/>
<path d="M3410 4245 c0 -8 5 -15 10 -15 6 0 10 7 10 15 0 8 -4 15 -10 15 -5 0
-10 -7 -10 -15z"/>
<path d="M4748 3652 c-22 -14 -131 -80 -213 -129 -11 -7 -29 -16 -41 -22 -19
-8 -138 -78 -174 -101 -8 -6 -24 -15 -35 -20 -11 -6 -33 -19 -50 -30 -16 -11
-41 -25 -55 -31 -14 -5 -39 -21 -57 -35 -17 -13 -38 -24 -47 -24 -8 0 -18 -5
-21 -11 -4 -5 -17 -15 -28 -20 -12 -5 -35 -18 -52 -29 -16 -11 -43 -26 -60
-34 -43 -22 -140 -79 -210 -124 -11 -6 -31 -17 -44 -22 -13 -6 -35 -19 -50
-29 -14 -10 -57 -35 -96 -55 -38 -21 -91 -52 -117 -69 -46 -30 -48 -34 -48
-78 0 -37 5 -50 28 -72 15 -15 36 -27 47 -27 16 0 107 48 174 92 14 10 35 22
46 27 11 5 73 41 138 80 65 39 120 71 123 71 4 0 181 103 224 130 8 6 24 14
35 19 11 5 84 47 163 95 79 47 145 86 148 86 2 0 23 12 47 27 76 50 81 52 120
68 6 3 30 16 52 28 22 13 56 32 75 42 58 33 109 75 115 96 10 32 -14 88 -45
104 -36 19 -58 18 -92 -3z m-508 -402 c0 -5 -9 -10 -21 -10 -11 0 -17 5 -14
10 3 6 13 10 21 10 8 0 14 -4 14 -10z m-50 -29 c0 -14 -18 -23 -30 -16 -6 4
-8 11 -5 16 8 12 35 12 35 0z m-55 -30 c3 -5 1 -13 -5 -16 -15 -9 -43 3 -35
15 8 13 32 13 40 1z m-557 -333 c-7 -19 -38 -22 -38 -4 0 10 9 16 21 16 12 0
19 -5 17 -12z"/>
<path d="M5630 785 c0 -8 9 -15 20 -15 11 0 20 7 20 15 0 8 -9 15 -20 15 -11
0 -20 -7 -20 -15z"/>
<path d="M957 3621 c-65 -15 -124 -113 -114 -188 16 -108 34 -162 77 -228 11
-16 23 -37 27 -45 13 -27 90 -96 159 -143 102 -67 185 -95 277 -93 44 1 61 7
81 25 39 37 56 83 56 153 0 208 -157 418 -375 501 -46 18 -147 28 -188 18z
m73 -81 c0 -4 -9 -10 -20 -13 -15 -4 -20 -14 -20 -36 0 -21 -5 -31 -15 -31 -8
0 -15 -9 -15 -19 0 -25 -20 -38 -31 -20 -13 21 -11 39 5 39 22 0 28 17 16 40
-8 16 -8 20 3 20 8 0 22 9 31 19 17 18 46 19 46 1z m85 -32 c35 -16 31 -30 -7
-26 -22 2 -34 9 -36 21 -4 20 7 21 43 5z m103 -35 c-5 -25 -28 -28 -28 -4 0
12 6 21 16 21 9 0 14 -7 12 -17z m-148 -29 c72 -20 189 -119 238 -200 33 -55
51 -137 33 -148 -36 -22 -256 142 -277 207 -3 9 -10 17 -15 17 -5 0 -9 6 -9
13 0 6 -6 24 -14 38 -18 34 -27 75 -19 83 4 3 14 4 22 2 9 -2 27 -8 41 -12z
m203 -25 c-13 -13 -43 -5 -43 10 0 13 33 20 45 9 5 -5 5 -12 -2 -19z m125
-137 c2 -14 -2 -22 -11 -22 -17 0 -30 27 -21 41 9 16 29 4 32 -19z m32 -41 c0
-17 -18 -21 -24 -6 -3 9 0 15 9 15 8 0 15 -4 15 -9z m-4 -108 c-13 -24 -15
-25 -16 -7 0 11 5 25 12 32 19 19 21 6 4 -25z m24 -38 c0 -8 -4 -15 -10 -15
-5 0 -10 7 -10 15 0 8 5 15 10 15 6 0 10 -7 10 -15z m-37 -30 c21 -43 7 -53
-33 -24 -33 25 -35 30 -18 47 20 20 33 14 51 -23z m-48 -55 c3 -5 -3 -10 -14
-10 -11 0 -23 5 -26 10 -3 6 3 10 14 10 11 0 23 -4 26 -10z"/>
<path d="M5572 1293 c-96 -47 -69 -193 36 -193 91 0 140 83 90 151 -17 23 -77
61 -92 59 0 0 -16 -8 -34 -17z"/>
</g>
</svg>
